<svg width="328" height="331" viewBox="0 0 328 331" fill="none" xmlns="http://www.w3.org/2000/svg">
<path fill-rule="evenodd" clip-rule="evenodd" d="M234.5 0.5H288C310.5 0.500058 327.5 23.5345 327.5 34V47.5C327.5 58 313.5 82 287.5 82.5C265.606 82.921 243.5 82.5 227 82.5C216 82.5 199.5 71 199.5 51.5V32C199.5 17.5 208 0.499976 234.5 0.5ZM240 47.5H229C226 47.5 222.5 45 222.5 43V41C222.5 37.198 226 35 229 35H240C243 35 245.5 37 245.5 40V43C245.5 46 243 47.5 240 47.5Z" fill="#1E4E6F"/>
<path d="M327.5 34C327.5 23.5345 310.5 0.500058 288 0.5H234.5C208 0.499976 199.5 17.5 199.5 32M327.5 34C327.5 35.5 327.5 40.5 327.5 47.5M327.5 34V47.5M327.5 47.5C327.5 58 313.5 82 287.5 82.5C265.606 82.921 243.5 82.5 227 82.5C216 82.5 199.5 71 199.5 51.5M199.5 51.5C199.5 36.5 199.5 37.5 199.5 32M199.5 51.5V32M245.5 43C245.5 46 243 47.5 240 47.5H229C226 47.5 222.5 45 222.5 43M245.5 43C245.5 40 245.5 43 245.5 40M245.5 43V40M245.5 40C245.5 37 243 35 240 35M240 35C238.4 35 232.833 35 229 35M240 35H229M229 35C226 35 222.5 37.198 222.5 41M222.5 41C222.5 43.8284 222.5 41 222.5 43M222.5 41V43" stroke="#1E4E6F"/>
<path fill-rule="evenodd" clip-rule="evenodd" d="M123.5 134V300.5C117 294 99.1 280.9 79.5 280.5H27.5L24.5 277.5V121.5L28.5 117.5H78C85.1667 117.5 104.3 120.8 123.5 134ZM55.4814 176.04C55.8814 176.68 56.4547 177 57.2014 177C57.5747 177 57.9347 176.893 58.2814 176.68C58.6547 176.467 58.9347 176.147 59.1214 175.72L61.4014 170.12H75.7614L78.0014 175.72C78.1614 176.12 78.4147 176.44 78.7614 176.68C79.1347 176.893 79.5214 177 79.9214 177C80.6947 177 81.2681 176.707 81.6414 176.12C82.0414 175.507 82.0947 174.827 81.8014 174.08L70.5214 147.16C70.1747 146.227 69.5214 145.76 68.5614 145.76C67.6547 145.76 67.0014 146.227 66.6014 147.16L55.3614 174C55.0414 174.72 55.0814 175.4 55.4814 176.04ZM88.2464 176.04C89.1531 176.68 90.1931 177 91.3664 177H91.4464C92.2464 177 92.8997 176.813 93.4064 176.44C93.9131 176.067 94.1664 175.587 94.1664 175C94.1664 174.413 93.9931 173.933 93.6464 173.56C93.3264 173.187 92.8997 173 92.3664 173H91.3664C90.7797 173 90.2997 172.68 89.9264 172.04C89.5531 171.4 89.3664 170.587 89.3664 169.6V147.76C89.3664 147.173 89.1797 146.693 88.8064 146.32C88.4331 145.947 87.9531 145.76 87.3664 145.76C86.7797 145.76 86.2997 145.947 85.9264 146.32C85.5531 146.693 85.3664 147.173 85.3664 147.76V169.6C85.3664 171.04 85.6197 172.32 86.1264 173.44C86.6331 174.533 87.3397 175.4 88.2464 176.04ZM57.2403 221.2C59.1336 222 61.1603 222.4 63.3203 222.4C66.9736 222.4 70.2403 221.24 73.1203 218.92C73.547 218.493 73.7603 218 73.7603 217.44C73.7603 216.853 73.6003 216.4 73.2803 216.08C72.9603 215.733 72.5603 215.547 72.0803 215.52C71.627 215.467 71.1603 215.613 70.6803 215.96C69.5603 216.787 68.387 217.44 67.1603 217.92C65.9603 218.373 64.6803 218.6 63.3203 218.6C61.747 218.6 60.267 218.293 58.8803 217.68C57.4936 217.04 56.267 216.16 55.2003 215.04C54.1603 213.92 53.347 212.627 52.7603 211.16C52.1736 209.667 51.8803 208.067 51.8803 206.36C51.8803 204.68 52.1736 203.107 52.7603 201.64C53.347 200.147 54.1603 198.84 55.2003 197.72C56.267 196.6 57.4936 195.72 58.8803 195.08C60.267 194.44 61.747 194.12 63.3203 194.12C65.0536 194.12 66.4403 194.347 67.4803 194.8C68.547 195.253 69.5736 195.907 70.5603 196.76C71.0403 197.133 71.5336 197.307 72.0403 197.28C72.547 197.227 72.9736 197.04 73.3203 196.72C73.6936 196.373 73.8803 195.947 73.8803 195.44C73.8803 195.093 73.827 194.8 73.7203 194.56C73.6136 194.32 73.4003 194.067 73.0803 193.8C71.587 192.573 70.0936 191.693 68.6003 191.16C67.1336 190.627 65.3736 190.36 63.3203 190.36C61.1336 190.36 59.107 190.773 57.2403 191.6C55.3736 192.427 53.7336 193.573 52.3203 195.04C50.9336 196.48 49.8403 198.173 49.0403 200.12C48.267 202.04 47.8803 204.12 47.8803 206.36C47.8803 208.627 48.267 210.733 49.0403 212.68C49.8403 214.627 50.9336 216.333 52.3203 217.8C53.7336 219.24 55.3736 220.373 57.2403 221.2ZM84.2541 221.04C85.7207 221.813 87.3741 222.2 89.2141 222.2C90.5741 222.2 91.8407 221.96 93.0141 221.48C94.1874 221 95.1874 220.347 96.0141 219.52V219.96C96.0141 220.547 96.2007 221.04 96.5741 221.44C96.9741 221.813 97.4674 222 98.0541 222C98.6674 222 99.1607 221.813 99.5341 221.44C99.9074 221.04 100.094 220.547 100.094 219.96V202.12C100.094 201.507 99.9074 201.013 99.5341 200.64C99.1607 200.267 98.6674 200.08 98.0541 200.08C97.4674 200.08 96.9741 200.267 96.5741 200.64C96.2007 201.013 96.0141 201.507 96.0141 202.12V213.4C96.0141 214.36 95.7474 215.227 95.2141 216C94.6807 216.773 93.9607 217.387 93.0541 217.84C92.1741 218.293 91.1607 218.52 90.0141 218.52C88.2007 218.52 86.6807 218 85.4541 216.96C84.2541 215.893 83.6541 214.227 83.6541 211.96V202.12C83.6541 201.533 83.4541 201.053 83.0541 200.68C82.6807 200.28 82.2007 200.08 81.6141 200.08C81.0274 200.08 80.5341 200.28 80.1341 200.68C79.7607 201.053 79.5741 201.533 79.5741 202.12V211.96C79.5741 214.173 79.9874 216.04 80.8141 217.56C81.6674 219.08 82.8141 220.24 84.2541 221.04ZM45.8188 266.4C46.2188 266.8 46.7121 267 47.2987 267C47.8854 267 48.3788 266.8 48.7788 266.4C49.1788 266 49.3787 265.507 49.3787 264.92V245.4L58.9388 264.56C59.3388 265.387 59.9787 265.8 60.8587 265.8C61.6054 265.8 62.2054 265.453 62.6588 264.76L72.3388 245.04V264.92C72.3388 265.507 72.5387 266 72.9388 266.4C73.3388 266.8 73.8321 267 74.4188 267C74.9787 267 75.4588 266.8 75.8588 266.4C76.2854 266 76.4988 265.507 76.4988 264.92V237.84C76.4988 237.227 76.2988 236.733 75.8988 236.36C75.4987 235.96 75.0054 235.76 74.4188 235.76C73.6188 235.76 73.0054 236.133 72.5788 236.88L61.0188 260.68L49.1388 236.88C48.7121 236.133 48.0987 235.76 47.2987 235.76C46.7121 235.76 46.2188 235.96 45.8188 236.36C45.4188 236.733 45.2188 237.227 45.2188 237.84V264.92C45.2188 265.507 45.4188 266 45.8188 266.4ZM84.6756 266.48C85.0756 266.853 85.569 267.04 86.1556 267.04C86.769 267.04 87.2623 266.853 87.6356 266.48C88.009 266.08 88.1956 265.587 88.1956 265V253.72C88.1956 252.733 88.4623 251.867 88.9956 251.12C89.529 250.347 90.249 249.733 91.1556 249.28C92.0623 248.827 93.0756 248.6 94.1956 248.6C96.009 248.6 97.5156 249.133 98.7156 250.2C99.9423 251.24 100.556 252.893 100.556 255.16V265C100.556 265.587 100.742 266.08 101.116 266.48C101.516 266.853 102.009 267.04 102.596 267.04C103.182 267.04 103.662 266.853 104.036 266.48C104.436 266.08 104.636 265.587 104.636 265V255.16C104.636 252.947 104.209 251.08 103.356 249.56C102.529 248.04 101.382 246.893 99.9156 246.12C98.4756 245.32 96.8356 244.92 94.9956 244.92C93.6356 244.92 92.369 245.16 91.1956 245.64C90.0223 246.12 89.0223 246.773 88.1956 247.6V247.16C88.1956 246.547 88.009 246.053 87.6356 245.68C87.2623 245.307 86.769 245.12 86.1556 245.12C85.569 245.12 85.0756 245.307 84.6756 245.68C84.3023 246.053 84.1156 246.547 84.1156 247.16V265C84.1156 265.587 84.3023 266.08 84.6756 266.48Z" fill="#1E4E6F"/>
<path d="M62.8014 166.68H74.3614L68.6414 152.44L62.8014 166.68Z" fill="#1E4E6F"/>
<path d="M79.5 280.5C99.1 280.9 117 294 123.5 300.5V134C104.3 120.8 85.1667 117.5 78 117.5H28.5L24.5 121.5V277.5L27.5 280.5M79.5 280.5C59.9 280.5 36.6667 280.5 27.5 280.5M79.5 280.5H27.5M57.2014 177C56.4547 177 55.8814 176.68 55.4814 176.04C55.0814 175.4 55.0414 174.72 55.3614 174L66.6014 147.16C67.0014 146.227 67.6547 145.76 68.5614 145.76C69.5214 145.76 70.1747 146.227 70.5214 147.16L81.8014 174.08C82.0947 174.827 82.0414 175.507 81.6414 176.12C81.2681 176.707 80.6947 177 79.9214 177C79.5214 177 79.1347 176.893 78.7614 176.68C78.4147 176.44 78.1614 176.12 78.0014 175.72L75.7614 170.12H61.4014L59.1214 175.72C58.9347 176.147 58.6547 176.467 58.2814 176.68C57.9347 176.893 57.5747 177 57.2014 177ZM62.8014 166.68H74.3614L68.6414 152.44L62.8014 166.68ZM91.3664 177C90.1931 177 89.1531 176.68 88.2464 176.04C87.3397 175.4 86.6331 174.533 86.1264 173.44C85.6197 172.32 85.3664 171.04 85.3664 169.6V147.76C85.3664 147.173 85.5531 146.693 85.9264 146.32C86.2997 145.947 86.7797 145.76 87.3664 145.76C87.9531 145.76 88.4331 145.947 88.8064 146.32C89.1797 146.693 89.3664 147.173 89.3664 147.76V169.6C89.3664 170.587 89.5531 171.4 89.9264 172.04C90.2997 172.68 90.7797 173 91.3664 173H92.3664C92.8997 173 93.3264 173.187 93.6464 173.56C93.9931 173.933 94.1664 174.413 94.1664 175C94.1664 175.587 93.9131 176.067 93.4064 176.44C92.8997 176.813 92.2464 177 91.4464 177H91.3664ZM63.3203 222.4C61.1603 222.4 59.1336 222 57.2403 221.2C55.3736 220.373 53.7336 219.24 52.3203 217.8C50.9336 216.333 49.8403 214.627 49.0403 212.68C48.267 210.733 47.8803 208.627 47.8803 206.36C47.8803 204.12 48.267 202.04 49.0403 200.12C49.8403 198.173 50.9336 196.48 52.3203 195.04C53.7336 193.573 55.3736 192.427 57.2403 191.6C59.107 190.773 61.1336 190.36 63.3203 190.36C65.3736 190.36 67.1336 190.627 68.6003 191.16C70.0936 191.693 71.587 192.573 73.0803 193.8C73.4003 194.067 73.6136 194.32 73.7203 194.56C73.827 194.8 73.8803 195.093 73.8803 195.44C73.8803 195.947 73.6936 196.373 73.3203 196.72C72.9736 197.04 72.547 197.227 72.0403 197.28C71.5336 197.307 71.0403 197.133 70.5603 196.76C69.5736 195.907 68.547 195.253 67.4803 194.8C66.4403 194.347 65.0536 194.12 63.3203 194.12C61.747 194.12 60.267 194.44 58.8803 195.08C57.4936 195.72 56.267 196.6 55.2003 197.72C54.1603 198.84 53.347 200.147 52.7603 201.64C52.1736 203.107 51.8803 204.68 51.8803 206.36C51.8803 208.067 52.1736 209.667 52.7603 211.16C53.347 212.627 54.1603 213.92 55.2003 215.04C56.267 216.16 57.4936 217.04 58.8803 217.68C60.267 218.293 61.747 218.6 63.3203 218.6C64.6803 218.6 65.9603 218.373 67.1603 217.92C68.387 217.44 69.5603 216.787 70.6803 215.96C71.1603 215.613 71.627 215.467 72.0803 215.52C72.5603 215.547 72.9603 215.733 73.2803 216.08C73.6003 216.4 73.7603 216.853 73.7603 217.44C73.7603 218 73.547 218.493 73.1203 218.92C70.2403 221.24 66.9736 222.4 63.3203 222.4ZM89.2141 222.2C87.3741 222.2 85.7207 221.813 84.2541 221.04C82.8141 220.24 81.6674 219.08 80.8141 217.56C79.9874 216.04 79.5741 214.173 79.5741 211.96V202.12C79.5741 201.533 79.7607 201.053 80.1341 200.68C80.5341 200.28 81.0274 200.08 81.6141 200.08C82.2007 200.08 82.6807 200.28 83.0541 200.68C83.4541 201.053 83.6541 201.533 83.6541 202.12V211.96C83.6541 214.227 84.2541 215.893 85.4541 216.96C86.6807 218 88.2007 218.52 90.0141 218.52C91.1607 218.52 92.1741 218.293 93.0541 217.84C93.9607 217.387 94.6807 216.773 95.2141 216C95.7474 215.227 96.0141 214.36 96.0141 213.4V202.12C96.0141 201.507 96.2007 201.013 96.5741 200.64C96.9741 200.267 97.4674 200.08 98.0541 200.08C98.6674 200.08 99.1607 200.267 99.5341 200.64C99.9074 201.013 100.094 201.507 100.094 202.12V219.96C100.094 220.547 99.9074 221.04 99.5341 221.44C99.1607 221.813 98.6674 222 98.0541 222C97.4674 222 96.9741 221.813 96.5741 221.44C96.2007 221.04 96.0141 220.547 96.0141 219.96V219.52C95.1874 220.347 94.1874 221 93.0141 221.48C91.8407 221.96 90.5741 222.2 89.2141 222.2ZM47.2987 267C46.7121 267 46.2188 266.8 45.8188 266.4C45.4188 266 45.2188 265.507 45.2188 264.92V237.84C45.2188 237.227 45.4188 236.733 45.8188 236.36C46.2188 235.96 46.7121 235.76 47.2987 235.76C48.0987 235.76 48.7121 236.133 49.1388 236.88L61.0188 260.68L72.5788 236.88C73.0054 236.133 73.6187 235.76 74.4188 235.76C75.0054 235.76 75.4988 235.96 75.8988 236.36C76.2987 236.733 76.4988 237.227 76.4988 237.84V264.92C76.4988 265.507 76.2854 266 75.8588 266.4C75.4588 266.8 74.9787 267 74.4188 267C73.8321 267 73.3388 266.8 72.9388 266.4C72.5388 266 72.3388 265.507 72.3388 264.92V245.04L62.6588 264.76C62.2054 265.453 61.6054 265.8 60.8587 265.8C59.9787 265.8 59.3388 265.387 58.9388 264.56L49.3787 245.4V264.92C49.3787 265.507 49.1788 266 48.7788 266.4C48.3788 266.8 47.8854 267 47.2987 267ZM86.1556 267.04C85.569 267.04 85.0756 266.853 84.6756 266.48C84.3023 266.08 84.1156 265.587 84.1156 265V247.16C84.1156 246.547 84.3023 246.053 84.6756 245.68C85.0756 245.307 85.569 245.12 86.1556 245.12C86.769 245.12 87.2623 245.307 87.6356 245.68C88.009 246.053 88.1956 246.547 88.1956 247.16V247.6C89.0223 246.773 90.0223 246.12 91.1956 245.64C92.369 245.16 93.6356 244.92 94.9956 244.92C96.8356 244.92 98.4756 245.32 99.9156 246.12C101.382 246.893 102.529 248.04 103.356 249.56C104.209 251.08 104.636 252.947 104.636 255.16V265C104.636 265.587 104.436 266.08 104.036 266.48C103.662 266.853 103.182 267.04 102.596 267.04C102.009 267.04 101.516 266.853 101.116 266.48C100.742 266.08 100.556 265.587 100.556 265V255.16C100.556 252.893 99.9423 251.24 98.7156 250.2C97.5156 249.133 96.009 248.6 94.1956 248.6C93.0756 248.6 92.0623 248.827 91.1556 249.28C90.249 249.733 89.529 250.347 88.9956 251.12C88.4623 251.867 88.1956 252.733 88.1956 253.72V265C88.1956 265.587 88.009 266.08 87.6356 266.48C87.2623 266.853 86.769 267.04 86.1556 267.04Z" stroke="#1E4E6F"/>
<path d="M135 301V134.5C154.2 121.3 173.333 118 180.5 118H230L234 122V278L231 281H179C159.4 281.4 141.5 294.5 135 301Z" fill="#1E4E6F" stroke="#1E4E6F"/>
<path d="M4 129H7.51675C10.2716 129 12.5075 131.228 12.5167 133.983L13 278C13 287 22 292.5 27 292.5C37.5 292.5 62.1567 291.138 78.5 292.5C95.6122 293.926 114.08 306.198 121.875 314.278C122.627 315.058 123.574 315.62 124.633 315.848C131.441 317.317 128.929 316.972 134.113 315.795C135.014 315.591 135.853 315.174 136.523 314.537C143.867 307.55 158.137 293 181.5 293C193.667 293 220.5 292.5 230.5 292.5C238.5 292.5 246 287.5 246 277.5L246.483 134.483C246.492 131.728 248.728 129.5 251.483 129.5H254C257.2 129.5 257.667 132.833 257.5 134.5V311.5C257.5 315.5 255.167 316.5 254 316.5H167.399C163.02 316.5 158.86 318.413 156.01 321.738L152.99 325.262C150.14 328.587 145.98 330.5 141.601 330.5H118.17C113.353 330.5 108.83 328.187 106.009 324.282L104 321.5L102.429 319.929C99.5948 317.095 95.7529 315.513 91.7452 315.535C60.904 315.71 8.35985 316 5 316C1.4 316 0.5 312.667 0.5 311V133.5C0.5 130.3 2.83333 129.167 4 129Z" fill="#1E4E6F"/>
<path d="M182.5 105H181.5C178.739 105 176.5 102.762 176.5 100.001V91.5C176.5 87.5 171 82 167 82C140.333 82.1667 84.9 82.4 76.5 82C68.1 81.6 61 70 59.5 64C59.375 63.5 58.1315 58.2137 59.5 53.5C63.1 41.1 74.3333 36.6667 79.5 36H182.5C185.261 36 187.5 38.2386 187.5 41V42.5C187.5 45.2614 185.261 47.5 182.5 47.5H79.5C77 48.3333 72.4142 51.2574 71 55.5C70 58.5 70 61.5 71 63.5C73 67.5 76.2548 71 79.5 71H168.5C178.5 71 187.5 83.5 187.5 90.5V100C187.5 102.761 185.261 105 182.5 105Z" fill="#1E4E6F"/>
<path d="M4 129H7.51675C10.2716 129 12.5075 131.228 12.5167 133.983L13 278C13 287 22 292.5 27 292.5C37.5 292.5 62.1567 291.138 78.5 292.5C95.6122 293.926 114.08 306.198 121.875 314.278C122.627 315.058 123.574 315.62 124.633 315.848C131.441 317.317 128.929 316.972 134.113 315.795C135.014 315.591 135.853 315.174 136.523 314.537C143.867 307.55 158.137 293 181.5 293C193.667 293 220.5 292.5 230.5 292.5C238.5 292.5 246 287.5 246 277.5L246.483 134.483C246.492 131.728 248.728 129.5 251.483 129.5H254C257.2 129.5 257.667 132.833 257.5 134.5V311.5C257.5 315.5 255.167 316.5 254 316.5H167.399C163.02 316.5 158.86 318.413 156.01 321.738L152.99 325.262C150.14 328.587 145.98 330.5 141.601 330.5H118.17C113.353 330.5 108.83 328.187 106.009 324.282L104 321.5L102.429 319.929C99.5948 317.095 95.7529 315.513 91.7452 315.535C60.904 315.71 8.35985 316 5 316C1.4 316 0.5 312.667 0.5 311V133.5C0.5 130.3 2.83333 129.167 4 129Z" stroke="#1E4E6F" stroke-linecap="round"/>
<path d="M182.5 105H181.5C178.739 105 176.5 102.762 176.5 100.001V91.5C176.5 87.5 171 82 167 82C140.333 82.1667 84.9 82.4 76.5 82C68.1 81.6 61 70 59.5 64C59.375 63.5 58.1315 58.2137 59.5 53.5C63.1 41.1 74.3333 36.6667 79.5 36H182.5C185.261 36 187.5 38.2386 187.5 41V42.5C187.5 45.2614 185.261 47.5 182.5 47.5H79.5C77 48.3333 72.4142 51.2574 71 55.5C70 58.5 70 61.5 71 63.5C73 67.5 76.2548 71 79.5 71H168.5C178.5 71 187.5 83.5 187.5 90.5V100C187.5 102.761 185.261 105 182.5 105Z" stroke="#1E4E6F" stroke-linecap="round"/>
</svg>
