<svg width="328" height="331" viewBox="0 0 328 331" fill="none" xmlns="http://www.w3.org/2000/svg">
<path fill-rule="evenodd" clip-rule="evenodd" d="M234.5 0.5H288C310.5 0.500058 327.5 23.5345 327.5 34V47.5C327.5 58 313.5 82 287.5 82.5C265.606 82.921 243.5 82.5 227 82.5C216 82.5 199.5 71 199.5 51.5V32C199.5 17.5 208 0.499976 234.5 0.5ZM240 47.5H229C226 47.5 222.5 45 222.5 43V41C222.5 37.198 226 35 229 35H240C243 35 245.5 37 245.5 40V43C245.5 46 243 47.5 240 47.5Z" fill="#B5EAEA"/>
<path d="M327.5 34C327.5 23.5345 310.5 0.500058 288 0.5H234.5C208 0.499976 199.5 17.5 199.5 32M327.5 34C327.5 35.5 327.5 40.5 327.5 47.5M327.5 34V47.5M327.5 47.5C327.5 58 313.5 82 287.5 82.5C265.606 82.921 243.5 82.5 227 82.5C216 82.5 199.5 71 199.5 51.5M199.5 51.5C199.5 36.5 199.5 37.5 199.5 32M199.5 51.5V32M245.5 43C245.5 46 243 47.5 240 47.5H229C226 47.5 222.5 45 222.5 43M245.5 43C245.5 40 245.5 43 245.5 40M245.5 43V40M245.5 40C245.5 37 243 35 240 35M240 35C238.4 35 232.833 35 229 35M240 35H229M229 35C226 35 222.5 37.198 222.5 41M222.5 41C222.5 43.8284 222.5 41 222.5 43M222.5 41V43" stroke="#B5EAEA"/>
<path fill-rule="evenodd" clip-rule="evenodd" d="M123.5 134V300.5C117 294 99.1 280.9 79.5 280.5H27.5L24.5 277.5V121.5L28.5 117.5H78C85.1667 117.5 104.3 120.8 123.5 134ZM54.4814 163.04C54.8814 163.68 55.4547 164 56.2014 164C56.5747 164 56.9347 163.893 57.2814 163.68C57.6547 163.467 57.9347 163.147 58.1214 162.72L60.4014 157.12H74.7614L77.0014 162.72C77.1614 163.12 77.4147 163.44 77.7614 163.68C78.1347 163.893 78.5214 164 78.9214 164C79.6947 164 80.2681 163.707 80.6414 163.12C81.0414 162.507 81.0947 161.827 80.8014 161.08L69.5214 134.16C69.1747 133.227 68.5214 132.76 67.5614 132.76C66.6547 132.76 66.0014 133.227 65.6014 134.16L54.3614 161C54.0414 161.72 54.0814 162.4 54.4814 163.04ZM87.2464 163.04C88.1531 163.68 89.1931 164 90.3664 164H90.4464C91.2464 164 91.8997 163.813 92.4064 163.44C92.9131 163.067 93.1664 162.587 93.1664 162C93.1664 161.413 92.9931 160.933 92.6464 160.56C92.3264 160.187 91.8997 160 91.3664 160H90.3664C89.7797 160 89.2997 159.68 88.9264 159.04C88.5531 158.4 88.3664 157.587 88.3664 156.6V134.76C88.3664 134.173 88.1797 133.693 87.8064 133.32C87.4331 132.947 86.9531 132.76 86.3664 132.76C85.7797 132.76 85.2997 132.947 84.9264 133.32C84.5531 133.693 84.3664 134.173 84.3664 134.76V156.6C84.3664 158.04 84.6197 159.32 85.1264 160.44C85.6331 161.533 86.3397 162.4 87.2464 163.04ZM56.2403 208.2C58.1336 209 60.1603 209.4 62.3203 209.4C65.9736 209.4 69.2403 208.24 72.1203 205.92C72.547 205.493 72.7603 205 72.7603 204.44C72.7603 203.853 72.6003 203.4 72.2803 203.08C71.9603 202.733 71.5603 202.547 71.0803 202.52C70.627 202.467 70.1603 202.613 69.6803 202.96C68.5603 203.787 67.387 204.44 66.1603 204.92C64.9603 205.373 63.6803 205.6 62.3203 205.6C60.747 205.6 59.267 205.293 57.8803 204.68C56.4936 204.04 55.267 203.16 54.2003 202.04C53.1603 200.92 52.347 199.627 51.7603 198.16C51.1736 196.667 50.8803 195.067 50.8803 193.36C50.8803 191.68 51.1736 190.107 51.7603 188.64C52.347 187.147 53.1603 185.84 54.2003 184.72C55.267 183.6 56.4936 182.72 57.8803 182.08C59.267 181.44 60.747 181.12 62.3203 181.12C64.0536 181.12 65.4403 181.347 66.4803 181.8C67.547 182.253 68.5736 182.907 69.5603 183.76C70.0403 184.133 70.5336 184.307 71.0403 184.28C71.547 184.227 71.9736 184.04 72.3203 183.72C72.6936 183.373 72.8803 182.947 72.8803 182.44C72.8803 182.093 72.827 181.8 72.7203 181.56C72.6136 181.32 72.4003 181.067 72.0803 180.8C70.587 179.573 69.0936 178.693 67.6003 178.16C66.1336 177.627 64.3736 177.36 62.3203 177.36C60.1336 177.36 58.107 177.773 56.2403 178.6C54.3736 179.427 52.7336 180.573 51.3203 182.04C49.9336 183.48 48.8403 185.173 48.0403 187.12C47.267 189.04 46.8803 191.12 46.8803 193.36C46.8803 195.627 47.267 197.733 48.0403 199.68C48.8403 201.627 49.9336 203.333 51.3203 204.8C52.7336 206.24 54.3736 207.373 56.2403 208.2ZM83.2541 208.04C84.7207 208.813 86.3741 209.2 88.2141 209.2C89.5741 209.2 90.8407 208.96 92.0141 208.48C93.1874 208 94.1874 207.347 95.0141 206.52V206.96C95.0141 207.547 95.2007 208.04 95.5741 208.44C95.9741 208.813 96.4674 209 97.0541 209C97.6674 209 98.1607 208.813 98.5341 208.44C98.9074 208.04 99.0941 207.547 99.0941 206.96V189.12C99.0941 188.507 98.9074 188.013 98.5341 187.64C98.1607 187.267 97.6674 187.08 97.0541 187.08C96.4674 187.08 95.9741 187.267 95.5741 187.64C95.2007 188.013 95.0141 188.507 95.0141 189.12V200.4C95.0141 201.36 94.7474 202.227 94.2141 203C93.6807 203.773 92.9607 204.387 92.0541 204.84C91.1741 205.293 90.1607 205.52 89.0141 205.52C87.2007 205.52 85.6807 205 84.4541 203.96C83.2541 202.893 82.6541 201.227 82.6541 198.96V189.12C82.6541 188.533 82.4541 188.053 82.0541 187.68C81.6807 187.28 81.2007 187.08 80.6141 187.08C80.0274 187.08 79.5341 187.28 79.1341 187.68C78.7607 188.053 78.5741 188.533 78.5741 189.12V198.96C78.5741 201.173 78.9874 203.04 79.8141 204.56C80.6674 206.08 81.8141 207.24 83.2541 208.04ZM44.8188 253.4C45.2188 253.8 45.7121 254 46.2987 254C46.8854 254 47.3788 253.8 47.7788 253.4C48.1788 253 48.3787 252.507 48.3787 251.92V232.4L57.9388 251.56C58.3388 252.387 58.9787 252.8 59.8587 252.8C60.6054 252.8 61.2054 252.453 61.6588 251.76L71.3388 232.04V251.92C71.3388 252.507 71.5388 253 71.9388 253.4C72.3388 253.8 72.8321 254 73.4188 254C73.9787 254 74.4588 253.8 74.8588 253.4C75.2854 253 75.4988 252.507 75.4988 251.92V224.84C75.4988 224.227 75.2987 223.733 74.8988 223.36C74.4988 222.96 74.0054 222.76 73.4188 222.76C72.6187 222.76 72.0054 223.133 71.5788 223.88L60.0188 247.68L48.1388 223.88C47.7121 223.133 47.0987 222.76 46.2987 222.76C45.7121 222.76 45.2188 222.96 44.8188 223.36C44.4188 223.733 44.2188 224.227 44.2188 224.84V251.92C44.2188 252.507 44.4188 253 44.8188 253.4ZM83.6756 253.48C84.0756 253.853 84.569 254.04 85.1556 254.04C85.769 254.04 86.2623 253.853 86.6356 253.48C87.009 253.08 87.1956 252.587 87.1956 252V240.72C87.1956 239.733 87.4623 238.867 87.9956 238.12C88.529 237.347 89.249 236.733 90.1556 236.28C91.0623 235.827 92.0756 235.6 93.1956 235.6C95.009 235.6 96.5156 236.133 97.7156 237.2C98.9423 238.24 99.5556 239.893 99.5556 242.16V252C99.5556 252.587 99.7423 253.08 100.116 253.48C100.516 253.853 101.009 254.04 101.596 254.04C102.182 254.04 102.662 253.853 103.036 253.48C103.436 253.08 103.636 252.587 103.636 252V242.16C103.636 239.947 103.209 238.08 102.356 236.56C101.529 235.04 100.382 233.893 98.9156 233.12C97.4756 232.32 95.8356 231.92 93.9956 231.92C92.6356 231.92 91.369 232.16 90.1956 232.64C89.0223 233.12 88.0223 233.773 87.1956 234.6V234.16C87.1956 233.547 87.009 233.053 86.6356 232.68C86.2623 232.307 85.769 232.12 85.1556 232.12C84.569 232.12 84.0756 232.307 83.6756 232.68C83.3023 233.053 83.1156 233.547 83.1156 234.16V252C83.1156 252.587 83.3023 253.08 83.6756 253.48Z" fill="#B5EAEA"/>
<path d="M61.8014 153.68H73.3614L67.6414 139.44L61.8014 153.68Z" fill="#B5EAEA"/>
<path d="M79.5 280.5C99.1 280.9 117 294 123.5 300.5V134C104.3 120.8 85.1667 117.5 78 117.5H28.5L24.5 121.5V277.5L27.5 280.5M79.5 280.5C59.9 280.5 36.6667 280.5 27.5 280.5M79.5 280.5H27.5M56.2014 164C55.4547 164 54.8814 163.68 54.4814 163.04C54.0814 162.4 54.0414 161.72 54.3614 161L65.6014 134.16C66.0014 133.227 66.6547 132.76 67.5614 132.76C68.5214 132.76 69.1747 133.227 69.5214 134.16L80.8014 161.08C81.0947 161.827 81.0414 162.507 80.6414 163.12C80.2681 163.707 79.6947 164 78.9214 164C78.5214 164 78.1347 163.893 77.7614 163.68C77.4147 163.44 77.1614 163.12 77.0014 162.72L74.7614 157.12H60.4014L58.1214 162.72C57.9347 163.147 57.6547 163.467 57.2814 163.68C56.9347 163.893 56.5747 164 56.2014 164ZM61.8014 153.68H73.3614L67.6414 139.44L61.8014 153.68ZM90.3664 164C89.1931 164 88.1531 163.68 87.2464 163.04C86.3397 162.4 85.6331 161.533 85.1264 160.44C84.6197 159.32 84.3664 158.04 84.3664 156.6V134.76C84.3664 134.173 84.5531 133.693 84.9264 133.32C85.2997 132.947 85.7797 132.76 86.3664 132.76C86.9531 132.76 87.4331 132.947 87.8064 133.32C88.1797 133.693 88.3664 134.173 88.3664 134.76V156.6C88.3664 157.587 88.5531 158.4 88.9264 159.04C89.2997 159.68 89.7797 160 90.3664 160H91.3664C91.8997 160 92.3264 160.187 92.6464 160.56C92.9931 160.933 93.1664 161.413 93.1664 162C93.1664 162.587 92.9131 163.067 92.4064 163.44C91.8997 163.813 91.2464 164 90.4464 164H90.3664ZM62.3203 209.4C60.1603 209.4 58.1336 209 56.2403 208.2C54.3736 207.373 52.7336 206.24 51.3203 204.8C49.9336 203.333 48.8403 201.627 48.0403 199.68C47.267 197.733 46.8803 195.627 46.8803 193.36C46.8803 191.12 47.267 189.04 48.0403 187.12C48.8403 185.173 49.9336 183.48 51.3203 182.04C52.7336 180.573 54.3736 179.427 56.2403 178.6C58.107 177.773 60.1336 177.36 62.3203 177.36C64.3736 177.36 66.1336 177.627 67.6003 178.16C69.0936 178.693 70.587 179.573 72.0803 180.8C72.4003 181.067 72.6136 181.32 72.7203 181.56C72.827 181.8 72.8803 182.093 72.8803 182.44C72.8803 182.947 72.6936 183.373 72.3203 183.72C71.9736 184.04 71.547 184.227 71.0403 184.28C70.5336 184.307 70.0403 184.133 69.5603 183.76C68.5736 182.907 67.547 182.253 66.4803 181.8C65.4403 181.347 64.0536 181.12 62.3203 181.12C60.747 181.12 59.267 181.44 57.8803 182.08C56.4936 182.72 55.267 183.6 54.2003 184.72C53.1603 185.84 52.347 187.147 51.7603 188.64C51.1736 190.107 50.8803 191.68 50.8803 193.36C50.8803 195.067 51.1736 196.667 51.7603 198.16C52.347 199.627 53.1603 200.92 54.2003 202.04C55.267 203.16 56.4936 204.04 57.8803 204.68C59.267 205.293 60.747 205.6 62.3203 205.6C63.6803 205.6 64.9603 205.373 66.1603 204.92C67.387 204.44 68.5603 203.787 69.6803 202.96C70.1603 202.613 70.627 202.467 71.0803 202.52C71.5603 202.547 71.9603 202.733 72.2803 203.08C72.6003 203.4 72.7603 203.853 72.7603 204.44C72.7603 205 72.547 205.493 72.1203 205.92C69.2403 208.24 65.9736 209.4 62.3203 209.4ZM88.2141 209.2C86.3741 209.2 84.7207 208.813 83.2541 208.04C81.8141 207.24 80.6674 206.08 79.8141 204.56C78.9874 203.04 78.5741 201.173 78.5741 198.96V189.12C78.5741 188.533 78.7607 188.053 79.1341 187.68C79.5341 187.28 80.0274 187.08 80.6141 187.08C81.2007 187.08 81.6807 187.28 82.0541 187.68C82.4541 188.053 82.6541 188.533 82.6541 189.12V198.96C82.6541 201.227 83.2541 202.893 84.4541 203.96C85.6807 205 87.2007 205.52 89.0141 205.52C90.1607 205.52 91.1741 205.293 92.0541 204.84C92.9607 204.387 93.6807 203.773 94.2141 203C94.7474 202.227 95.0141 201.36 95.0141 200.4V189.12C95.0141 188.507 95.2007 188.013 95.5741 187.64C95.9741 187.267 96.4674 187.08 97.0541 187.08C97.6674 187.08 98.1607 187.267 98.5341 187.64C98.9074 188.013 99.0941 188.507 99.0941 189.12V206.96C99.0941 207.547 98.9074 208.04 98.5341 208.44C98.1607 208.813 97.6674 209 97.0541 209C96.4674 209 95.9741 208.813 95.5741 208.44C95.2007 208.04 95.0141 207.547 95.0141 206.96V206.52C94.1874 207.347 93.1874 208 92.0141 208.48C90.8407 208.96 89.5741 209.2 88.2141 209.2ZM46.2987 254C45.7121 254 45.2188 253.8 44.8188 253.4C44.4188 253 44.2188 252.507 44.2188 251.92V224.84C44.2188 224.227 44.4188 223.733 44.8188 223.36C45.2188 222.96 45.7121 222.76 46.2987 222.76C47.0987 222.76 47.7121 223.133 48.1388 223.88L60.0188 247.68L71.5788 223.88C72.0054 223.133 72.6187 222.76 73.4188 222.76C74.0054 222.76 74.4988 222.96 74.8988 223.36C75.2987 223.733 75.4988 224.227 75.4988 224.84V251.92C75.4988 252.507 75.2854 253 74.8588 253.4C74.4588 253.8 73.9787 254 73.4188 254C72.8321 254 72.3388 253.8 71.9388 253.4C71.5388 253 71.3388 252.507 71.3388 251.92V232.04L61.6588 251.76C61.2054 252.453 60.6054 252.8 59.8587 252.8C58.9787 252.8 58.3388 252.387 57.9388 251.56L48.3787 232.4V251.92C48.3787 252.507 48.1788 253 47.7788 253.4C47.3788 253.8 46.8854 254 46.2987 254ZM85.1556 254.04C84.569 254.04 84.0756 253.853 83.6756 253.48C83.3023 253.08 83.1156 252.587 83.1156 252V234.16C83.1156 233.547 83.3023 233.053 83.6756 232.68C84.0756 232.307 84.569 232.12 85.1556 232.12C85.769 232.12 86.2623 232.307 86.6356 232.68C87.009 233.053 87.1956 233.547 87.1956 234.16V234.6C88.0223 233.773 89.0223 233.12 90.1956 232.64C91.369 232.16 92.6356 231.92 93.9956 231.92C95.8356 231.92 97.4756 232.32 98.9156 233.12C100.382 233.893 101.529 235.04 102.356 236.56C103.209 238.08 103.636 239.947 103.636 242.16V252C103.636 252.587 103.436 253.08 103.036 253.48C102.662 253.853 102.182 254.04 101.596 254.04C101.009 254.04 100.516 253.853 100.116 253.48C99.7423 253.08 99.5556 252.587 99.5556 252V242.16C99.5556 239.893 98.9423 238.24 97.7156 237.2C96.5156 236.133 95.009 235.6 93.1956 235.6C92.0756 235.6 91.0623 235.827 90.1556 236.28C89.249 236.733 88.529 237.347 87.9956 238.12C87.4623 238.867 87.1956 239.733 87.1956 240.72V252C87.1956 252.587 87.009 253.08 86.6356 253.48C86.2623 253.853 85.769 254.04 85.1556 254.04Z" stroke="#B5EAEA"/>
<path d="M135 301V134.5C154.2 121.3 173.333 118 180.5 118H230L234 122V278L231 281H179C159.4 281.4 141.5 294.5 135 301Z" fill="#B5EAEA" stroke="#B5EAEA"/>
<path d="M4 129H7.51675C10.2716 129 12.5075 131.228 12.5167 133.983L13 278C13 287 22 292.5 27 292.5C37.5 292.5 62.1567 291.138 78.5 292.5C95.6122 293.926 114.08 306.198 121.875 314.278C122.627 315.058 123.574 315.62 124.633 315.848C131.441 317.317 128.929 316.972 134.113 315.795C135.014 315.591 135.853 315.174 136.523 314.537C143.867 307.55 158.137 293 181.5 293C193.667 293 220.5 292.5 230.5 292.5C238.5 292.5 246 287.5 246 277.5L246.483 134.483C246.492 131.728 248.728 129.5 251.483 129.5H254C257.2 129.5 257.667 132.833 257.5 134.5V311.5C257.5 315.5 255.167 316.5 254 316.5H167.399C163.02 316.5 158.86 318.413 156.01 321.738L152.99 325.262C150.14 328.587 145.98 330.5 141.601 330.5H118.17C113.353 330.5 108.83 328.187 106.009 324.282L104 321.5L102.429 319.929C99.5948 317.095 95.7529 315.513 91.7452 315.535C60.904 315.71 8.35985 316 5 316C1.4 316 0.5 312.667 0.5 311V133.5C0.5 130.3 2.83333 129.167 4 129Z" fill="#B5EAEA"/>
<path d="M182.5 105H181.5C178.739 105 176.5 102.762 176.5 100.001V91.5C176.5 87.5 171 82 167 82C140.333 82.1667 84.9 82.4 76.5 82C68.1 81.6 61 70 59.5 64C59.375 63.5 58.1315 58.2137 59.5 53.5C63.1 41.1 74.3333 36.6667 79.5 36H182.5C185.261 36 187.5 38.2386 187.5 41V42.5C187.5 45.2614 185.261 47.5 182.5 47.5H79.5C77 48.3333 72.4142 51.2574 71 55.5C70 58.5 70 61.5 71 63.5C73 67.5 76.2548 71 79.5 71H168.5C178.5 71 187.5 83.5 187.5 90.5V100C187.5 102.761 185.261 105 182.5 105Z" fill="#B5EAEA"/>
<path d="M4 129H7.51675C10.2716 129 12.5075 131.228 12.5167 133.983L13 278C13 287 22 292.5 27 292.5C37.5 292.5 62.1567 291.138 78.5 292.5C95.6122 293.926 114.08 306.198 121.875 314.278C122.627 315.058 123.574 315.62 124.633 315.848C131.441 317.317 128.929 316.972 134.113 315.795C135.014 315.591 135.853 315.174 136.523 314.537C143.867 307.55 158.137 293 181.5 293C193.667 293 220.5 292.5 230.5 292.5C238.5 292.5 246 287.5 246 277.5L246.483 134.483C246.492 131.728 248.728 129.5 251.483 129.5H254C257.2 129.5 257.667 132.833 257.5 134.5V311.5C257.5 315.5 255.167 316.5 254 316.5H167.399C163.02 316.5 158.86 318.413 156.01 321.738L152.99 325.262C150.14 328.587 145.98 330.5 141.601 330.5H118.17C113.353 330.5 108.83 328.187 106.009 324.282L104 321.5L102.429 319.929C99.5948 317.095 95.7529 315.513 91.7452 315.535C60.904 315.71 8.35985 316 5 316C1.4 316 0.5 312.667 0.5 311V133.5C0.5 130.3 2.83333 129.167 4 129Z" stroke="#B5EAEA" stroke-linecap="round"/>
<path d="M182.5 105H181.5C178.739 105 176.5 102.762 176.5 100.001V91.5C176.5 87.5 171 82 167 82C140.333 82.1667 84.9 82.4 76.5 82C68.1 81.6 61 70 59.5 64C59.375 63.5 58.1315 58.2137 59.5 53.5C63.1 41.1 74.3333 36.6667 79.5 36H182.5C185.261 36 187.5 38.2386 187.5 41V42.5C187.5 45.2614 185.261 47.5 182.5 47.5H79.5C77 48.3333 72.4142 51.2574 71 55.5C70 58.5 70 61.5 71 63.5C73 67.5 76.2548 71 79.5 71H168.5C178.5 71 187.5 83.5 187.5 90.5V100C187.5 102.761 185.261 105 182.5 105Z" stroke="#B5EAEA" stroke-linecap="round"/>
</svg>
